<?xml version="1.0" standalone="no"?>
<!DOCTYPE svg PUBLIC "-//W3C//DTD SVG 20010904//EN"
 "http://www.w3.org/TR/2001/REC-SVG-20010904/DTD/svg10.dtd">
<svg version="1.0" xmlns="http://www.w3.org/2000/svg"
 width="500.000000pt" height="500.000000pt" viewBox="0 0 500.000000 500.000000"
 preserveAspectRatio="xMidYMid meet">

<g transform="translate(0.000000,500.000000) scale(0.100000,-0.100000)"
fill="#FF6500" stroke="none">
<path d="M3052 4280 c-107 -21 -200 -44 -208 -51 -24 -20 -16 -38 41 -98 30
-32 55 -61 55 -65 0 -12 -427 -421 -439 -421 -4 0 -65 54 -135 120 -133 126
-162 145 -194 129 -11 -5 -137 -124 -281 -264 -284 -277 -289 -283 -236 -335
18 -19 35 -25 70 -25 53 0 51 -1 307 247 86 84 160 153 165 153 4 0 70 -59
145 -130 76 -72 143 -130 150 -130 27 0 80 42 199 158 68 65 151 143 183 173
32 30 89 82 125 116 36 35 71 63 76 63 6 0 40 -29 75 -65 97 -98 111 -91 130
65 7 58 21 161 30 230 21 147 16 170 -32 169 -18 0 -120 -18 -226 -39z"/>
<path d="M3130 3658 c-34 -18 -70 -75 -70 -111 0 -21 10 -39 35 -63 l35 -33 0
-335 0 -336 -135 0 -135 0 0 255 0 254 25 25 c31 31 32 65 4 95 -41 43 -109
49 -143 12 -30 -33 -30 -74 -2 -108 l26 -31 0 -251 0 -251 -124 0 -125 0 0
167 1 167 29 33 c37 42 37 67 0 104 -50 50 -124 35 -150 -30 -10 -24 -10 -34
3 -60 9 -17 21 -31 26 -31 6 0 10 -68 10 -175 l0 -175 -130 0 -130 0 0 112 c0
108 1 113 25 133 14 11 28 34 31 52 9 44 -38 93 -89 93 -38 0 -82 -29 -92 -60
-9 -27 13 -90 31 -90 11 0 14 -23 14 -120 l0 -120 -140 0 -140 0 0 36 c0 24 8
46 25 66 50 59 16 138 -60 138 -77 0 -110 -82 -60 -150 14 -19 25 -47 25 -62
0 -28 0 -28 -68 -28 -40 0 -73 -5 -80 -12 -17 -17 -15 -42 6 -61 17 -16 92
-17 878 -17 762 0 862 2 882 16 27 19 28 28 2 54 -16 16 -33 20 -90 20 l-70 0
0 338 0 339 25 11 c14 7 30 23 36 36 17 36 3 109 -25 135 -29 27 -83 36 -116
19z m78 -78 c18 -17 20 -24 9 -40 -18 -30 -65 -27 -73 5 -6 26 9 55 30 55 7 0
22 -9 34 -20z"/>
<path d="M1500 3520 c-85 -17 -174 -81 -221 -156 -48 -79 -49 -88 -49 -910 0
-843 -1 -821 59 -916 35 -55 105 -109 176 -135 47 -17 105 -18 945 -19 492 -1
941 2 998 7 132 10 183 37 259 134 72 94 68 34 71 885 3 803 2 838 -41 930
-44 92 -168 180 -255 180 l-40 0 -17 -69 c-9 -39 -14 -74 -11 -79 3 -5 25 -12
48 -16 55 -9 101 -45 127 -99 21 -43 21 -51 21 -806 0 -741 -1 -763 -20 -801
-11 -22 -41 -54 -67 -72 l-48 -33 -950 0 -950 0 -45 30 c-25 17 -56 50 -70 75
l-25 45 3 768 c2 422 7 778 11 790 14 36 58 83 90 96 27 12 51 47 51 75 0 7
16 31 35 53 l35 41 -31 6 c-35 7 -40 7 -89 -4z"/>
<path d="M1638 2501 l-33 -29 0 -99 c0 -122 7 -149 48 -173 26 -16 50 -20 133
-20 97 0 103 1 131 28 28 25 30 33 36 130 8 112 -4 161 -41 181 -12 6 -70 11
-131 11 -108 0 -111 -1 -143 -29z m172 -86 c3 -22 4 -64 2 -92 -3 -43 -7 -53
-22 -53 -15 0 -19 12 -25 74 -8 84 -1 119 23 114 11 -2 19 -17 22 -43z"/>
<path d="M2109 2501 c-28 -29 -29 -32 -29 -136 0 -112 12 -156 47 -169 10 -4
62 -10 115 -12 160 -8 188 19 188 184 0 96 -1 101 -29 131 l-29 31 -117 0
c-115 0 -117 0 -146 -29z m179 -98 c13 -28 2 -123 -15 -130 -19 -7 -33 14 -33
49 0 22 -5 27 -27 30 -40 4 -44 38 -5 38 16 0 35 7 42 15 16 20 27 19 38 -2z"/>
<path d="M2594 2512 c-36 -30 -44 -58 -44 -152 0 -152 27 -180 174 -180 157 0
176 20 176 185 0 104 -1 107 -29 136 -29 29 -31 29 -143 29 -93 -1 -117 -4
-134 -18z m210 -48 c24 -9 19 -27 -18 -64 l-35 -33 30 -27 c16 -16 29 -35 29
-43 0 -31 -23 -30 -51 3 l-29 32 -31 -26 c-57 -48 -83 -23 -29 29 l30 29 -31
32 c-20 20 -29 39 -26 48 10 25 33 19 60 -15 l24 -31 28 36 c15 20 29 36 30
36 2 0 10 -3 19 -6z"/>
<path d="M3049 2499 c-28 -30 -29 -34 -29 -138 0 -104 1 -107 31 -144 l30 -37
104 0 c167 0 185 18 185 183 0 99 -2 107 -26 136 l-26 31 -120 0 -120 0 -29
-31z m105 -48 c34 -37 -2 -83 -43 -55 -23 17 -27 44 -9 62 17 17 32 15 52 -7z
m126 -10 c0 -3 -21 -28 -45 -54 -25 -26 -45 -51 -45 -55 0 -4 -14 -22 -31 -40
-28 -30 -33 -32 -47 -18 -14 13 -11 20 24 63 21 26 43 53 49 59 5 6 23 26 38
43 23 26 31 30 43 20 8 -6 14 -14 14 -18z m-2 -103 c17 -17 15 -65 -3 -72 -20
-7 -38 1 -53 24 -24 38 25 79 56 48z"/>
<path d="M1659 2032 c-46 -23 -62 -71 -57 -179 4 -85 6 -96 30 -120 26 -26 29
-26 144 -24 65 1 126 6 135 12 30 15 39 43 45 137 8 102 -4 152 -40 172 -34
17 -221 19 -257 2z m206 -157 l0 -30 -81 -3 c-66 -2 -85 1 -98 14 -9 9 -15 21
-13 28 4 12 86 24 152 22 38 -1 40 -3 40 -31z"/>
<path d="M2153 2044 c-12 -3 -33 -17 -47 -31 -25 -25 -26 -31 -26 -138 0 -98
3 -116 21 -139 20 -26 22 -26 149 -26 l128 0 26 31 c24 29 26 37 26 137 0 100
-2 109 -26 137 -25 29 -27 30 -127 31 -56 1 -112 0 -124 -2z m185 -166 l-3
-33 -87 -3 -88 -3 0 30 c0 37 7 39 103 40 l78 1 -3 -32z"/>
<path d="M2613 2040 c-45 -19 -63 -67 -63 -166 0 -78 3 -96 23 -125 l23 -34
119 -3 c175 -4 185 6 185 171 0 95 -2 104 -26 132 -25 30 -27 30 -132 32 -59
2 -117 -2 -129 -7z m197 -130 c0 -18 -7 -20 -84 -20 -47 0 -88 5 -91 10 -14
22 10 30 91 30 77 0 84 -2 84 -20z m0 -70 c0 -18 -7 -20 -84 -20 -52 0 -88 4
-92 11 -12 20 19 29 99 29 70 0 77 -2 77 -20z"/>
<path d="M3084 2041 c-12 -5 -31 -22 -43 -37 -18 -23 -21 -40 -21 -126 0 -161
12 -173 172 -169 67 1 128 7 138 14 31 19 40 54 40 162 0 95 -2 106 -24 132
-23 27 -28 28 -133 30 -59 2 -118 -1 -129 -6z m195 -120 c6 -10 7 -21 4 -25
-11 -10 -171 -7 -178 4 -4 6 -4 17 -1 25 4 11 25 15 85 15 68 0 82 -3 90 -19z
m1 -81 c0 -19 -7 -20 -90 -20 -71 0 -90 3 -90 14 0 21 16 24 103 25 71 1 77
-1 77 -19z"/>
<path d="M2200 1354 c0 -3 -13 -73 -30 -156 -16 -82 -30 -158 -30 -169 0 -18
-9 -19 -119 -19 -141 0 -169 -5 -207 -35 -23 -18 -29 -31 -29 -64 0 -74 -38
-70 690 -69 409 1 657 5 670 11 26 13 35 27 35 57 0 37 -27 69 -74 91 -35 16
-56 18 -152 12 l-111 -6 -11 49 c-7 27 -16 81 -22 119 -6 39 -16 89 -22 113
-10 41 -12 42 -52 42 -37 0 -46 -5 -88 -54 -61 -69 -105 -90 -173 -83 -30 3
-68 15 -88 28 -34 23 -97 106 -97 128 0 6 -20 11 -45 11 -25 0 -45 -3 -45 -6z"/>
</g>
</svg>
